<svg width="300" height="21" viewBox="0 0 300 21" fill="none" xmlns="http://www.w3.org/2000/svg">
<g clip-path="url(#clip0_8244_78345)">
<path d="M130.97 9.24239H17.6751C17.2677 9.24239 16.9374 9.5727 16.9374 9.97935C16.9374 10.386 17.2677 10.7163 17.6751 10.7163H130.97C131.377 10.7163 131.707 10.386 131.707 9.97935C131.707 9.5727 131.377 9.24239 130.97 9.24239Z" fill="#1D1D1B"/>
<path d="M12.5409 2.9072C17.0186 2.9072 21.1962 4.10749 23.3715 5.35088C26.1659 6.94724 38.6595 14.6411 38.7857 14.719C39.085 14.9041 39.178 15.2964 38.9935 15.5957C38.8099 15.8951 38.4183 15.9895 38.1175 15.8036C37.992 15.7265 25.5159 8.04323 22.7389 6.45669C19.8145 4.7855 13.0065 3.19669 7.02916 4.90643C3.60211 5.88527 2.22495 7.71293 1.67317 9.07422C1.02238 10.6797 1.17204 12.5738 2.07302 14.1385C3.85835 17.2382 8.52727 18.5013 13.9687 17.3554C17.2627 16.6615 19.1266 14.5481 19.209 12.9117C19.271 11.6691 18.3526 10.6819 16.6232 10.1332L16.4607 10.0833L16.7918 8.852L16.6089 9.46273L16.8251 8.86258L17.011 8.91927C19.308 9.64867 20.5733 11.1271 20.4811 12.9752C20.3549 15.4998 17.7268 17.8663 14.231 18.6018C8.2408 19.8618 3.03447 18.3614 0.969469 14.7741C-0.126522 12.8716 -0.304147 10.5617 0.492524 8.59501C1.15087 6.97143 2.75782 4.80137 6.67996 3.68119C8.59605 3.1332 10.5968 2.9072 12.5409 2.9072Z" fill="#1D1D1B"/>
<path d="M26.6675 6.71558C26.793 6.79343 39.2873 14.488 42.0809 16.0844C45.2018 17.8675 52.4422 19.5621 58.7732 17.7541C62.6946 16.6339 64.3023 14.4631 64.9607 12.8395C65.7573 10.8728 65.5797 8.56214 64.483 6.6604C62.9047 3.91665 59.4868 2.39284 55.2857 2.39284C53.9947 2.39284 52.6304 2.53646 51.2222 2.83351C50.381 3.00962 49.5805 3.28097 48.8413 3.63849C46.3417 4.85013 44.8232 6.92269 44.9736 8.91966C44.9819 9.03379 45.0008 9.16153 45.0257 9.29456C45.3704 9.0353 45.7801 8.83954 46.2479 8.72162C46.2041 7.29835 47.449 5.72919 49.3968 4.78513C50.0416 4.4722 50.7445 4.23562 51.4845 4.07991C56.9267 2.9363 61.5948 4.19631 63.3794 7.29608C64.2812 8.86146 64.4301 10.7549 63.78 12.3611C63.2282 13.7224 61.8511 15.55 58.424 16.5289C52.4467 18.2378 45.6387 16.6498 42.7136 14.9786C39.9366 13.3921 27.4612 5.70878 27.3357 5.63093C27.0379 5.44726 26.6448 5.54023 26.4589 5.83879C26.2752 6.13811 26.3674 6.53115 26.6675 6.71558Z" fill="#1D1D1B"/>
<path d="M63.0378 6.71558C63.1633 6.79343 75.6576 14.488 78.4512 16.0844C81.5721 17.8675 88.8125 19.5621 95.1435 17.7541C99.0649 16.6339 100.673 14.4631 101.331 12.8395C102.128 10.8728 101.95 8.56214 100.853 6.6604C99.275 3.91665 95.8571 2.39284 91.6553 2.39284C90.365 2.39284 89.0007 2.53646 87.5925 2.83351C86.7513 3.00962 85.9508 3.28097 85.2116 3.63849C82.712 4.85013 81.1935 6.92269 81.3439 8.91966C81.3522 9.03379 81.3711 9.16153 81.396 9.29456C81.7407 9.0353 82.1504 8.83954 82.6182 8.72162C82.5744 7.29835 83.8193 5.72919 85.7671 4.78513C86.4119 4.4722 87.1148 4.23562 87.8548 4.07991C93.297 2.9363 97.9651 4.19631 99.7497 7.29608C100.651 8.86146 100.8 10.7549 100.15 12.3611C99.5985 13.7224 98.2214 15.55 94.7943 16.5289C88.817 18.2378 82.009 16.6498 79.0839 14.9786C76.3069 13.3921 63.8315 5.70878 63.706 5.63093C63.4082 5.44726 63.0151 5.54023 62.8292 5.83879C62.6455 6.13811 62.7377 6.53115 63.0378 6.71558Z" fill="#1D1D1B"/>
<path d="M18.9051 10.2339L16.555 7.88379L14.2049 10.2339L16.555 12.5839L18.9051 10.2339Z" fill="#1D1D1B"/>
<path d="M14.7505 10.2339L12.4004 7.88379L10.0503 10.2339L12.4004 12.5839L14.7505 10.2339Z" fill="#1D1D1B"/>
<path d="M168.499 9.24239H281.794C282.201 9.24239 282.531 9.5727 282.531 9.97935C282.531 10.386 282.201 10.7163 281.794 10.7163H168.499C168.092 10.7163 167.762 10.386 167.762 9.97935C167.762 9.5727 168.092 9.24239 168.499 9.24239Z" fill="#1D1D1B"/>
<path d="M286.928 2.9072C282.451 2.9072 278.273 4.10749 276.098 5.35088C273.303 6.94724 260.81 14.6411 260.683 14.719C260.384 14.9041 260.291 15.2964 260.476 15.5957C260.659 15.8951 261.051 15.9895 261.352 15.8036C261.477 15.7265 273.953 8.04323 276.73 6.45669C279.655 4.7855 286.463 3.19669 292.44 4.90643C295.867 5.88527 297.244 7.71293 297.796 9.07422C298.447 10.6797 298.297 12.5738 297.396 14.1385C295.611 17.2382 290.942 18.5013 285.5 17.3554C282.206 16.6615 280.343 14.5481 280.26 12.9117C280.198 11.6691 281.117 10.6819 282.846 10.1332L283.008 10.0833L282.677 8.852L282.86 9.46273L282.644 8.86258L282.458 8.91927C280.161 9.64867 278.896 11.1271 278.988 12.9752C279.114 15.4998 281.742 17.8663 285.238 18.6018C291.228 19.8618 296.435 18.3614 298.5 14.7741C299.596 12.8716 299.773 10.5617 298.977 8.59501C298.318 6.97143 296.711 4.80137 292.789 3.68119C290.873 3.1332 288.872 2.9072 286.928 2.9072Z" fill="#1D1D1B"/>
<path d="M272.801 6.71558C272.676 6.79343 260.182 14.488 257.388 16.0844C254.267 17.8675 247.027 19.5621 240.696 17.7541C236.774 16.6339 235.167 14.4631 234.508 12.8395C233.711 10.8728 233.889 8.56214 234.986 6.6604C236.564 3.91665 239.982 2.39284 244.183 2.39284C245.474 2.39284 246.838 2.53646 248.247 2.83351C249.088 3.00962 249.888 3.28097 250.628 3.63849C253.127 4.85013 254.646 6.92269 254.495 8.91966C254.487 9.03379 254.468 9.16153 254.443 9.29456C254.098 9.0353 253.689 8.83954 253.221 8.72162C253.265 7.29835 252.02 5.72919 250.072 4.78513C249.427 4.4722 248.724 4.23562 247.984 4.07991C242.542 2.9363 237.874 4.19631 236.089 7.29608C235.188 8.86146 235.038 10.7549 235.689 12.3611C236.241 13.7224 237.618 15.55 241.045 16.5289C247.022 18.2378 253.83 16.6498 256.755 14.9786C259.532 13.3921 272.008 5.70878 272.133 5.63093C272.431 5.44726 272.824 5.54023 273.01 5.83879C273.194 6.13811 273.101 6.53115 272.801 6.71558Z" fill="#1D1D1B"/>
<path d="M236.432 6.71558C236.306 6.79343 223.812 14.488 221.018 16.0844C217.897 17.8675 210.657 19.5621 204.326 17.7541C200.405 16.6339 198.797 14.4631 198.139 12.8395C197.342 10.8728 197.52 8.56214 198.616 6.6604C200.195 3.91665 203.612 2.39284 207.814 2.39284C209.105 2.39284 210.469 2.53646 211.877 2.83351C212.718 3.00962 213.519 3.28097 214.258 3.63849C216.758 4.85013 218.276 6.92269 218.126 8.91966C218.117 9.03379 218.098 9.16153 218.074 9.29456C217.729 9.0353 217.319 8.83954 216.851 8.72162C216.895 7.29835 215.65 5.72919 213.702 4.78513C213.058 4.4722 212.355 4.23562 211.615 4.07991C206.173 2.9363 201.504 4.19631 199.72 7.29608C198.818 8.86146 198.668 10.7549 199.319 12.3611C199.871 13.7224 201.248 15.55 204.675 16.5289C210.653 18.2378 217.461 16.6498 220.386 14.9786C223.162 13.3921 235.638 5.70878 235.764 5.63093C236.061 5.44726 236.454 5.54023 236.64 5.83879C236.824 6.13811 236.732 6.53115 236.432 6.71558Z" fill="#1D1D1B"/>
<path d="M282.914 12.5835L285.264 10.2334L282.914 7.88333L280.564 10.2334L282.914 12.5835Z" fill="#1D1D1B"/>
<path d="M287.069 12.5835L289.419 10.2334L287.069 7.88333L284.719 10.2334L287.069 12.5835Z" fill="#1D1D1B"/>
<path d="M148.748 0.606825L140.224 9.13061C139.615 9.73983 139.615 10.727 140.224 11.3362L148.748 19.86C149.357 20.4692 150.344 20.4692 150.953 19.86L159.477 11.3362C160.086 10.727 160.086 9.73983 159.477 9.13061L150.953 0.606825C150.344 -0.00239563 149.357 -0.00239563 148.748 0.606825Z" fill="#1D1D1B"/>
</g>
<defs>
<clipPath id="clip0_8244_78345">
<rect width="299.5" height="20.3174" fill="white" transform="matrix(1 0 0 -1 0 20.3174)"/>
</clipPath>
</defs>
</svg>
