<svg width="300" height="21" viewBox="0 0 300 21" fill="none" xmlns="http://www.w3.org/2000/svg">
<path d="M130.97 9.09249H17.675C17.2676 9.09249 16.9373 9.4228 16.9373 9.82945C16.9373 10.2361 17.2676 10.5664 17.675 10.5664H130.97C131.377 10.5664 131.707 10.2361 131.707 9.82945C131.707 9.4228 131.377 9.09249 130.97 9.09249Z" fill="#1D1D1B"/>
<path d="M12.5408 2.75729C17.0185 2.75729 21.1961 3.95759 23.3715 5.20097C26.1659 6.79734 38.6594 14.4912 38.7856 14.569C39.0849 14.7542 39.1779 15.1465 38.9935 15.4458C38.8098 15.7452 38.4183 15.8396 38.1174 15.6537C37.992 15.5766 25.5158 7.89333 22.7388 6.30679C19.8144 4.63559 13.0064 3.04679 7.0291 4.75653C3.60205 5.73536 2.22488 7.56302 1.67311 8.92432C1.02232 10.5298 1.17198 12.4239 2.07296 13.9886C3.85829 17.0883 8.52721 18.3514 13.9686 17.2055C17.2626 16.5116 19.1266 14.3982 19.209 12.7618C19.2709 11.5192 18.3526 10.532 16.6232 9.98327L16.4607 9.93339L16.7917 8.7021L16.6088 9.31283L16.825 8.71268L17.0109 8.76937C19.308 9.49877 20.5733 10.9772 20.4811 12.8253C20.3548 15.3498 17.7267 17.7164 14.2309 18.4519C8.24074 19.7119 3.03441 18.2115 0.969408 14.6242C-0.126583 12.7217 -0.304209 10.4118 0.492463 8.44511C1.15081 6.82153 2.75776 4.65147 6.6799 3.53129C8.59599 2.98329 10.5967 2.75729 12.5408 2.75729Z" fill="#1D1D1B"/>
<path d="M26.6674 6.56568C26.7929 6.64353 39.2872 14.3381 42.0809 15.9345C45.2018 17.7176 52.4421 19.4122 58.7732 17.6042C62.6945 16.484 64.3023 14.3132 64.9606 12.6896C65.7573 10.7229 65.5797 8.41223 64.4829 6.5105C62.9047 3.76675 59.4867 2.24294 55.2857 2.24294C53.9946 2.24294 52.6303 2.38655 51.2222 2.6836C50.3809 2.85972 49.5805 3.13107 48.8412 3.48859C46.3416 4.70023 44.8231 6.77278 44.9735 8.76975C44.9818 8.88389 45.0007 9.01163 45.0257 9.14466C45.3703 8.8854 45.78 8.68963 46.2479 8.57172C46.204 7.14844 47.4489 5.57929 49.3968 4.63522C50.0415 4.3223 50.7445 4.08572 51.4845 3.93001C56.9266 2.7864 61.5948 4.04641 63.3794 7.14618C64.2811 8.71155 64.43 10.605 63.78 12.2112C63.2282 13.5725 61.851 15.4001 58.424 16.379C52.4467 18.0879 45.6387 16.4999 42.7135 14.8287C39.9365 13.2422 27.4611 5.55888 27.3356 5.48103C27.0378 5.29735 26.6448 5.39032 26.4588 5.68889C26.2752 5.9882 26.3674 6.38125 26.6674 6.56568Z" fill="#1D1D1B"/>
<path d="M63.0377 6.56568C63.1632 6.64353 75.6575 14.3381 78.4512 15.9345C81.5721 17.7176 88.8124 19.4122 95.1435 17.6042C99.0648 16.484 100.673 14.3132 101.331 12.6896C102.128 10.7229 101.95 8.41223 100.853 6.5105C99.275 3.76675 95.857 2.24294 91.6552 2.24294C90.365 2.24294 89.0006 2.38655 87.5925 2.6836C86.7512 2.85972 85.9508 3.13107 85.2115 3.48859C82.7119 4.70023 81.1934 6.77278 81.3438 8.76975C81.3521 8.88389 81.371 9.01163 81.396 9.14466C81.7406 8.8854 82.1503 8.68963 82.6182 8.57172C82.5743 7.14844 83.8192 5.57929 85.7671 4.63522C86.4118 4.3223 87.1148 4.08572 87.8548 3.93001C93.2969 2.7864 97.9651 4.04641 99.7497 7.14618C100.651 8.71155 100.8 10.605 100.15 12.2112C99.5985 13.5725 98.2213 15.4001 94.7943 16.379C88.817 18.0879 82.009 16.4999 79.0838 14.8287C76.3068 13.2422 63.8314 5.55888 63.7059 5.48103C63.4081 5.29735 63.0151 5.39032 62.8291 5.68889C62.6455 5.9882 62.7377 6.38125 63.0377 6.56568Z" fill="#1D1D1B"/>
<path d="M18.905 10.084L16.5549 7.73389L14.2049 10.084L16.5549 12.434L18.905 10.084Z" fill="#1D1D1B"/>
<path d="M14.7504 10.084L12.4003 7.73389L10.0503 10.084L12.4003 12.434L14.7504 10.084Z" fill="#1D1D1B"/>
<path d="M168.498 9.09249H281.794C282.201 9.09249 282.531 9.4228 282.531 9.82945C282.531 10.2361 282.201 10.5664 281.794 10.5664H168.498C168.092 10.5664 167.762 10.2361 167.762 9.82945C167.762 9.4228 168.092 9.09249 168.498 9.09249Z" fill="#1D1D1B"/>
<path d="M286.928 2.75729C282.451 2.75729 278.273 3.95759 276.098 5.20097C273.303 6.79734 260.81 14.4912 260.683 14.569C260.384 14.7542 260.291 15.1465 260.476 15.4458C260.659 15.7452 261.051 15.8396 261.352 15.6537C261.477 15.5766 273.953 7.89333 276.73 6.30679C279.655 4.63559 286.463 3.04679 292.44 4.75653C295.867 5.73536 297.244 7.56302 297.796 8.92432C298.447 10.5298 298.297 12.4239 297.396 13.9886C295.611 17.0883 290.942 18.3514 285.5 17.2055C282.206 16.5116 280.342 14.3982 280.26 12.7618C280.198 11.5192 281.116 10.532 282.846 9.98327L283.008 9.93339L282.677 8.7021L282.86 9.31283L282.644 8.71268L282.458 8.76937C280.161 9.49877 278.896 10.9772 278.988 12.8253C279.114 15.3498 281.742 17.7164 285.238 18.4519C291.228 19.7119 296.435 18.2115 298.5 14.6242C299.596 12.7217 299.773 10.4118 298.977 8.44511C298.318 6.82153 296.711 4.65147 292.789 3.53129C290.873 2.98329 288.872 2.75729 286.928 2.75729Z" fill="#1D1D1B"/>
<path d="M272.801 6.56568C272.676 6.64353 260.181 14.3381 257.388 15.9345C254.267 17.7176 247.027 19.4122 240.696 17.6042C236.774 16.484 235.166 14.3132 234.508 12.6896C233.711 10.7229 233.889 8.41223 234.986 6.5105C236.564 3.76675 239.982 2.24294 244.183 2.24294C245.474 2.24294 246.838 2.38655 248.247 2.6836C249.088 2.85972 249.888 3.13107 250.627 3.48859C253.127 4.70023 254.646 6.77278 254.495 8.76975C254.487 8.88389 254.468 9.01163 254.443 9.14466C254.098 8.8854 253.689 8.68963 253.221 8.57172C253.265 7.14844 252.02 5.57929 250.072 4.63522C249.427 4.3223 248.724 4.08572 247.984 3.93001C242.542 2.7864 237.874 4.04641 236.089 7.14618C235.188 8.71155 235.038 10.605 235.689 12.2112C236.241 13.5725 237.618 15.4001 241.045 16.379C247.022 18.0879 253.83 16.4999 256.755 14.8287C259.532 13.2422 272.008 5.55888 272.133 5.48103C272.431 5.29735 272.824 5.39032 273.01 5.68889C273.194 5.9882 273.101 6.38125 272.801 6.56568Z" fill="#1D1D1B"/>
<path d="M236.432 6.56568C236.306 6.64353 223.812 14.3381 221.018 15.9345C217.897 17.7176 210.657 19.4122 204.326 17.6042C200.405 16.484 198.797 14.3132 198.139 12.6896C197.342 10.7229 197.519 8.41223 198.616 6.5105C200.194 3.76675 203.612 2.24294 207.813 2.24294C209.104 2.24294 210.469 2.38655 211.877 2.6836C212.718 2.85972 213.519 3.13107 214.258 3.48859C216.758 4.70023 218.276 6.77278 218.126 8.76975C218.117 8.88389 218.098 9.01163 218.073 9.14466C217.729 8.8854 217.319 8.68963 216.851 8.57172C216.895 7.14844 215.65 5.57929 213.702 4.63522C213.058 4.3223 212.355 4.08572 211.615 3.93001C206.173 2.7864 201.504 4.04641 199.72 7.14618C198.818 8.71155 198.668 10.605 199.319 12.2112C199.871 13.5725 201.248 15.4001 204.675 16.379C210.652 18.0879 217.46 16.4999 220.386 14.8287C223.162 13.2422 235.638 5.55888 235.764 5.48103C236.061 5.29735 236.454 5.39032 236.64 5.68889C236.824 5.9882 236.732 6.38125 236.432 6.56568Z" fill="#1D1D1B"/>
<path d="M282.914 12.4336L285.264 10.0835L282.914 7.73343L280.563 10.0835L282.914 12.4336Z" fill="#1D1D1B"/>
<path d="M287.069 12.4336L289.419 10.0835L287.069 7.73343L284.718 10.0835L287.069 12.4336Z" fill="#1D1D1B"/>
<path d="M148.748 0.456923L140.224 8.98071C139.615 9.58993 139.615 10.5771 140.224 11.1863L148.748 19.7101C149.357 20.3193 150.344 20.3193 150.953 19.7101L159.477 11.1863C160.086 10.5771 160.086 9.58993 159.477 8.98071L150.953 0.456923C150.344 -0.152298 149.357 -0.152298 148.748 0.456923Z" fill="#1D1D1B"/>
</svg>
